<svg width="270" height="248" viewBox="0 0 270 248" fill="none" xmlns="http://www.w3.org/2000/svg">
    <path
        d="M206.039 50.4731C206.135 39.3967 204.95 24.0306 197.459 15.8674C190.897 8.72857 180.589 5.55931 170.985 4.40686C154.018 2.39006 138.62 1.90987 121.557 2.9983C112.274 3.60654 102.926 4.66296 94.1864 7.83221C85.4469 11.0015 77.2517 16.4116 72.1937 24.1907C65.9832 33.7625 65.0228 45.7032 64.4786 57.0997C62.878 90.1688 63.1341 129.064 65.2789 162.133C65.5671 166.647 69.3126 170.137 73.8263 170.137C108.144 170.105 154.946 169.88 198.1 166.679C202.549 166.359 205.975 162.678 206.007 158.228C206.295 122.758 205.751 85.9112 206.039 50.4731ZM93.9943 153.362C93.258 155.507 91.3373 157.428 89.1604 157.363C87.3997 157.299 85.8311 155.987 84.9347 154.386C84.0704 152.754 83.7823 150.897 83.5902 149.04C82.8539 141.997 82.4057 123.206 82.9179 120.965C83.4301 118.724 85.1588 116.579 87.3677 116.483C89.3205 116.387 91.0812 117.924 91.9455 119.781C92.8099 121.637 92.9699 123.718 93.098 125.767C93.5462 132.682 94.0263 139.628 94.4745 146.543C94.6026 148.848 94.7306 151.217 93.9943 153.362ZM113.618 147.888C113.522 149.52 113.362 151.185 112.786 152.69C112.21 154.194 111.153 155.475 109.809 155.763C108.08 156.115 106.351 154.674 105.487 152.786C103.758 148.976 104.078 142.414 103.694 138.22C103.278 133.546 103.534 130.121 103.406 125.447C103.374 123.878 103.31 122.31 103.63 120.805C103.95 119.3 104.623 117.828 105.775 117.092C107.76 115.779 110.385 117.124 111.697 119.364C113.01 121.605 113.33 124.454 113.554 127.176C114.034 134.026 114.066 140.973 113.618 147.888ZM134.138 149.04C133.978 150.993 133.722 152.754 132.602 154.354C131.481 155.955 128.952 156.211 127.031 154.738C125.751 153.746 125.143 150.961 124.983 149.296C124.118 140.493 124.15 133.93 123.574 125.095C123.446 123.078 123.318 120.997 123.99 119.108C124.662 117.22 126.327 115.555 128.28 115.651C129.849 115.715 131.193 116.931 131.929 118.372C132.666 119.813 132.89 121.477 133.082 123.078C134.074 131.689 134.843 140.397 134.138 149.04ZM153.282 116.643C156.771 113.634 162.245 114.563 164.102 118.98C164.966 121.061 164.39 123.622 162.79 125.223C161.189 126.823 158.788 127.496 156.579 127.112C153.858 126.663 151.361 124.454 151.105 121.733C150.945 119.813 151.841 117.892 153.282 116.643ZM164.39 150.705C163.142 152.69 160.613 153.842 158.34 153.298C157.027 152.978 155.555 152.177 154.562 151.249C153.314 150.097 152.514 148.592 152.45 146.863C152.385 145.263 153.282 143.406 154.466 142.318C155.875 141.037 157.347 140.301 160.069 140.717C162.085 141.037 163.526 142.286 164.486 143.982C165.575 146.063 165.639 148.72 164.39 150.705ZM103.822 91.0972C99.9167 91.1612 89.7046 90.8091 87.0156 88.024C83.3981 84.2465 84.0704 76.2433 84.0704 72.3058C84.1024 65.359 83.3661 36.6756 88.8403 32.482C91.6894 30.3051 95.691 30.5292 99.2764 30.5292C124.246 30.5292 149.216 30.5612 174.154 30.5612C179.628 30.5612 183.95 31.0094 187.023 35.5232C189.136 38.5964 188.976 42.662 188.752 46.3755C188.208 54.8268 188.72 63.3102 188.176 71.7616C187.888 76.3394 188.336 83.9904 185.23 87.3517C182.061 90.7771 178.156 90.1368 170.601 90.425C150.049 91.2573 128.568 90.7131 103.822 91.0972ZM175.275 117.828C177.067 112.866 183.982 113.602 186.927 117.092C188.56 119.012 188.816 122.086 187.311 124.102C186.287 125.511 184.558 126.343 182.798 126.503C180.525 126.727 178.156 125.895 176.619 124.198C175.082 122.502 174.506 119.973 175.275 117.828ZM187.471 150.161C185.743 151.857 183.054 152.498 180.717 151.793C178.892 151.217 177.291 149.873 176.491 148.112C175.499 145.999 175.691 143.342 177.131 141.517C180.172 137.58 187.503 138.796 189.104 143.47C189.872 145.743 189.2 148.464 187.471 150.161Z"
        fill="#669BBC" />
    <path
        d="M45.3671 187.327C47.768 182.557 49.2086 177.211 48.6324 171.929C48.0562 166.647 45.239 161.461 40.6292 158.772C35.5072 155.795 29.2007 155.251 23.3103 155.795C17.8362 156.275 11.9779 157.876 7.81621 161.461C3.97468 164.758 2.34204 170.041 2.43807 175.099C2.53411 180.157 3.59053 186.623 5.95947 189.76C8.10432 192.577 13.2584 192.962 15.5633 190.305C17.6441 187.904 17.1319 184.318 16.7157 181.181C16.2996 178.044 15.4993 174.554 17.2599 171.865C19.5008 168.408 24.975 167.319 29.1046 167.576C32.6581 167.8 36.4996 169.4 37.8441 172.698C39.7329 177.467 34.2907 182.718 35.9874 187.583C36.6596 189.536 38.5804 190.977 40.6612 191.105C42.7421 191.233 44.4387 189.184 45.3671 187.327Z"
        fill="#669BBC" />
    <path
        d="M224.574 24.5108C222.173 29.2487 220.701 34.6268 221.245 39.9089C221.789 45.191 224.606 50.4091 229.184 53.0981C234.274 56.1073 240.612 56.6516 246.503 56.1714C251.977 55.7232 257.835 54.1226 262.029 50.5691C265.871 47.3039 267.535 41.9897 267.471 36.9638C267.407 31.9057 266.383 25.4392 264.014 22.3019C261.901 19.4848 256.747 19.0687 254.41 21.7257C252.297 24.1267 252.809 27.7121 253.225 30.8493C253.642 33.9866 254.41 37.476 252.649 40.165C250.376 43.6224 244.902 44.6788 240.805 44.4227C237.251 44.1986 233.41 42.566 232.097 39.2687C230.208 34.4668 235.683 29.2487 234.018 24.3828C233.346 22.43 231.425 20.9574 229.376 20.8614C227.263 20.7013 225.503 22.6861 224.574 24.5108Z"
        fill="#669BBC" />
    <path
        d="M102.83 93.5302C98.5082 93.5302 88.5842 93.146 85.3189 89.7207C81.4454 85.6551 81.5735 78.5803 81.6695 73.8744C81.6695 73.2982 81.7015 72.786 81.7015 72.3378C81.7015 71.6975 81.7015 70.8652 81.7015 69.9048C81.5735 45.223 83.2061 33.8585 87.3998 30.6253C90.6651 28.1283 94.7627 28.1603 98.3801 28.1603C98.7002 28.1603 98.9884 28.1603 99.2765 28.1603L174.154 28.1923C179.82 28.1923 185.231 28.6725 189.008 34.2107C191.665 38.1162 191.377 43.0142 191.153 46.5676C190.897 50.7292 190.865 54.9869 190.865 59.1165C190.865 63.3102 190.833 67.6639 190.577 71.9536C190.513 72.7539 190.513 73.6823 190.481 74.6747C190.321 79.5406 190.16 85.6231 186.991 89.0164C183.694 92.6018 179.756 92.6658 174.282 92.7619C173.162 92.7939 171.977 92.7939 170.697 92.8579C158.564 93.3061 146.111 93.3381 132.922 93.3381C123.638 93.3381 114.034 93.3381 103.886 93.4982C103.566 93.5302 103.214 93.5302 102.83 93.5302ZM97.3877 32.9302C94.7307 32.9302 92.0736 33.0582 90.3449 34.4028C89.9608 34.6909 87.944 36.8357 87.0156 49.1926C86.4394 56.7476 86.5034 64.9429 86.5034 69.8408C86.5034 70.8332 86.5034 71.6655 86.5034 72.3058C86.5034 72.786 86.5034 73.3302 86.4714 73.9384C86.4074 77.6199 86.2793 83.7663 88.7763 86.3914C90.1208 87.7679 96.8435 88.8243 103.79 88.7283C114.002 88.5682 123.606 88.5682 132.922 88.5682C146.079 88.5682 158.5 88.5682 170.537 88.088C171.881 88.024 173.13 88.024 174.218 87.992C179.468 87.896 181.645 87.7679 183.502 85.7831C185.423 83.6703 185.583 78.3882 185.711 74.5467C185.743 73.5223 185.775 72.5619 185.839 71.6655C186.095 67.5039 186.127 63.2462 186.127 59.1165C186.127 54.9229 186.159 50.5692 186.415 46.2795C186.639 42.534 186.703 39.2687 185.102 36.9318C182.83 33.6024 179.756 32.9942 174.218 32.9942L99.3405 32.9622C99.0204 32.9622 98.7323 32.9622 98.4121 32.9622C98.028 32.9302 97.7079 32.9302 97.3877 32.9302Z"
        fill="#222222" />
    <path
        d="M135.419 81.4934C133.818 81.4934 132.25 81.1733 130.809 80.565C127.096 78.9324 124.535 75.2189 124.406 71.3454C124.374 70.0329 125.431 68.9124 126.743 68.8804C128.056 68.8484 129.176 69.9048 129.208 71.2173C129.272 73.2661 130.713 75.2829 132.73 76.1793C134.747 77.0436 137.276 76.8516 139.324 75.6671C141.341 74.5146 142.91 72.4338 143.71 69.9688C144.094 68.6883 145.471 68.0161 146.719 68.4002C148 68.7844 148.672 70.1609 148.288 71.4094C147.167 74.9948 144.767 78.068 141.725 79.8287C139.805 80.9172 137.596 81.4934 135.419 81.4934Z"
        fill="#222222" />
    <path
        d="M106.832 62.862C106.127 62.862 105.455 62.5739 104.975 61.9977C104.142 60.9733 104.27 59.4687 105.295 58.6043L112.082 53.0021L104.206 50.7292C102.926 50.3451 102.19 49.0325 102.574 47.752C102.958 46.4715 104.27 45.7352 105.551 46.1194L117.812 49.6728C118.676 49.9289 119.316 50.6332 119.509 51.4975C119.701 52.3619 119.38 53.2582 118.676 53.8344L108.368 62.3178C107.92 62.702 107.376 62.862 106.832 62.862Z"
        fill="#222222" />
    <path
        d="M164.006 62.2538C163.494 62.2538 162.95 62.0937 162.534 61.7416L152.514 53.8345C151.809 53.2902 151.489 52.3939 151.649 51.5295C151.809 50.6652 152.418 49.9289 153.282 49.6728L166.407 45.4151C167.656 44.9989 169.032 45.7032 169.448 46.9517C169.864 48.2002 169.16 49.5768 167.912 49.9929L159.076 52.8741L165.543 57.9961C166.599 58.8284 166.759 60.333 165.927 61.3574C165.415 61.9337 164.71 62.2538 164.006 62.2538Z"
        fill="#222222" />
    <path
        d="M89.2565 159.764C89.1925 159.764 89.1285 159.764 89.0965 159.764C86.5995 159.7 84.1985 158.068 82.854 155.507C81.7976 153.522 81.4454 151.345 81.2534 149.264C80.6131 142.958 79.9728 123.27 80.6131 120.421C81.5735 116.227 84.7427 114.178 87.3038 114.082C90.0889 113.954 92.7779 115.779 94.1545 118.756C95.2109 121.029 95.371 123.462 95.531 125.607L96.9076 146.383C97.0676 148.656 97.2597 151.505 96.3313 154.13C95.1149 157.492 92.2337 159.764 89.2565 159.764ZM85.2549 121.509C84.8388 123.622 85.2549 141.613 85.9912 148.816C86.1833 150.641 86.4394 152.113 87.0477 153.266C87.5919 154.258 88.4882 154.963 89.2245 154.995C90.1529 155.027 91.2413 153.97 91.7215 152.626C92.3298 150.897 92.2017 148.784 92.0416 146.767L90.6651 125.991C90.537 124.198 90.409 122.342 89.7367 120.869C89.2245 119.749 88.2321 118.916 87.4318 118.948C86.5675 118.948 85.5751 120.101 85.2549 121.509Z"
        fill="#222222" />
    <path
        d="M109.296 158.196C106.895 158.196 104.559 156.499 103.31 153.778C101.869 150.577 101.677 146.063 101.517 142.093C101.453 140.749 101.421 139.5 101.325 138.444C101.037 135.403 101.069 132.906 101.069 130.249C101.069 128.744 101.069 127.208 101.037 125.543C101.005 123.942 100.941 122.15 101.293 120.357C101.773 118.02 102.894 116.163 104.43 115.139C105.711 114.274 107.248 114.018 108.816 114.37C110.769 114.819 112.626 116.259 113.778 118.18C115.379 120.869 115.731 124.166 115.955 127.015C116.467 133.994 116.499 141.101 116.019 148.08C115.891 149.872 115.731 151.793 115.059 153.554C114.13 155.987 112.37 157.684 110.353 158.132C109.969 158.164 109.617 158.196 109.296 158.196ZM107.472 118.948C107.28 118.948 107.184 119.012 107.088 119.076C106.607 119.396 106.191 120.261 105.967 121.253C105.711 122.502 105.743 123.942 105.807 125.351C105.871 127.111 105.839 128.712 105.839 130.217C105.839 132.746 105.839 135.147 106.063 137.964C106.159 139.148 106.223 140.461 106.287 141.869C106.415 145.391 106.575 149.424 107.664 151.761C108.176 152.914 109.008 153.426 109.296 153.362C109.585 153.298 110.129 152.786 110.513 151.793C110.961 150.641 111.089 149.2 111.185 147.696C111.633 140.941 111.633 134.058 111.121 127.304C110.929 124.871 110.673 122.342 109.617 120.549C109.136 119.749 108.4 119.14 107.728 118.98C107.632 118.98 107.568 118.948 107.472 118.948Z"
        fill="#222222" />
    <path
        d="M129.817 158.1C128.312 158.1 126.807 157.588 125.559 156.627C123.286 154.866 122.71 150.737 122.582 149.52C122.038 144.014 121.845 139.436 121.621 134.602C121.493 131.657 121.365 128.584 121.141 125.223C121.013 123.206 120.853 120.677 121.685 118.308C122.774 115.203 125.527 113.122 128.344 113.25C130.617 113.346 132.794 114.883 134.01 117.252C134.907 119.012 135.195 120.965 135.419 122.79C136.411 131.241 137.244 140.269 136.475 149.232C136.283 151.345 135.995 153.618 134.522 155.699C133.658 156.947 132.282 157.748 130.713 158.004C130.425 158.068 130.137 158.1 129.817 158.1ZM125.943 124.935C126.167 128.36 126.295 131.433 126.423 134.41C126.615 139.18 126.839 143.694 127.352 149.072C127.544 150.929 128.152 152.53 128.504 152.85C128.984 153.202 129.528 153.362 130.041 153.298C130.201 153.266 130.489 153.202 130.649 152.978C131.385 151.953 131.577 150.769 131.737 148.848C132.442 140.301 131.641 131.529 130.681 123.366C130.521 121.925 130.297 120.549 129.753 119.46C129.336 118.66 128.664 118.084 128.12 118.052C127.448 118.02 126.583 118.884 126.231 119.909C125.719 121.349 125.847 123.174 125.943 124.935Z"
        fill="#222222" />
    <path
        d="M157.828 129.608C157.283 129.608 156.739 129.576 156.195 129.48C152.225 128.808 149.088 125.639 148.736 121.957C148.48 119.364 149.632 116.643 151.713 114.851C154.018 112.866 157.155 112.066 160.069 112.77C162.886 113.442 165.159 115.363 166.311 118.052C167.56 120.997 166.823 124.55 164.518 126.919C162.822 128.616 160.357 129.608 157.828 129.608ZM157.956 117.316C156.835 117.316 155.715 117.732 154.851 118.5C153.954 119.268 153.41 120.453 153.506 121.509C153.666 123.014 155.171 124.454 156.995 124.775C158.5 125.031 160.133 124.55 161.093 123.59C162.053 122.63 162.374 121.093 161.893 119.973C161.349 118.692 160.293 117.796 158.98 117.476C158.66 117.348 158.308 117.316 157.956 117.316Z"
        fill="#222222" />
    <path
        d="M182.061 128.936C179.308 128.936 176.619 127.784 174.826 125.799C172.649 123.398 171.945 119.941 173.034 116.995C173.994 114.338 176.171 112.546 178.988 112.034C182.477 111.393 186.479 112.834 188.752 115.523C191.153 118.34 191.345 122.63 189.232 125.511C187.856 127.4 185.583 128.616 183.022 128.904C182.701 128.936 182.381 128.936 182.061 128.936ZM177.515 118.628C177.067 119.909 177.419 121.509 178.38 122.598C179.34 123.686 180.973 124.262 182.541 124.102C183.726 123.974 184.782 123.43 185.359 122.662C186.159 121.573 186.031 119.749 185.07 118.628C183.886 117.252 181.645 116.419 179.82 116.771C178.668 116.963 177.9 117.572 177.515 118.628Z"
        fill="#222222" />
    <path
        d="M159.46 155.859C158.884 155.859 158.308 155.795 157.764 155.667C156.067 155.251 154.21 154.258 152.898 153.042C151.105 151.377 150.113 149.296 150.017 147.023C149.921 144.783 151.041 142.222 152.802 140.621C154.37 139.18 156.483 137.804 160.389 138.412C162.982 138.828 165.095 140.365 166.503 142.862C168.136 145.743 168.104 149.328 166.407 152.017C164.935 154.386 162.181 155.859 159.46 155.859ZM158.596 143.022C157.476 143.022 156.835 143.406 156.035 144.11C155.331 144.751 154.786 145.967 154.818 146.767C154.851 147.76 155.299 148.688 156.163 149.488C156.867 150.129 157.988 150.737 158.884 150.961C160.101 151.249 161.637 150.577 162.341 149.424C163.078 148.24 163.078 146.479 162.341 145.167C161.637 143.95 160.773 143.246 159.652 143.086C159.268 143.054 158.916 143.022 158.596 143.022Z"
        fill="#222222" />
    <path
        d="M182.701 154.482C181.805 154.482 180.909 154.354 180.012 154.098C177.547 153.33 175.403 151.473 174.314 149.136C172.906 146.159 173.258 142.574 175.211 140.045C177.163 137.516 180.525 136.299 184.014 136.875C187.503 137.452 190.321 139.66 191.345 142.67C192.433 145.807 191.537 149.52 189.136 151.857C187.439 153.554 185.07 154.482 182.701 154.482ZM182.317 141.549C181.133 141.549 179.82 141.933 179.02 142.99C178.188 144.078 178.028 145.775 178.668 147.119C179.212 148.24 180.237 149.136 181.421 149.52C182.894 149.969 184.686 149.552 185.775 148.496C186.863 147.44 187.279 145.679 186.799 144.27C186.255 142.67 184.622 141.869 183.246 141.645C182.958 141.549 182.637 141.549 182.317 141.549Z"
        fill="#222222" />
    <path
        d="M116.339 244.79C117.075 237.939 111.985 230.865 103.694 227.183C95.4029 223.502 84.3265 223.47 76.2273 227.023C68.0961 230.609 63.2942 237.619 64.3506 244.47C81.2853 244.79 99.4045 244.47 116.339 244.79Z"
        fill="#669BBC" />
    <path
        d="M208.632 245.687C209.368 238.836 204.278 231.761 195.987 228.08C187.696 224.43 176.619 224.366 168.52 227.919C160.389 231.505 155.587 238.516 156.643 245.366C173.546 245.687 191.665 245.366 208.632 245.687Z"
        fill="#669BBC" />
    <path
        d="M63.6143 118.916C59.8368 118.98 56.3795 119.685 53.2422 121.061L51.0654 116.579C48.0562 110.401 45.0149 104.222 42.0058 98.044C48.9205 94.8747 56.3154 93.3381 63.4863 93.5302C64.7988 93.5622 65.9192 92.5378 65.9513 91.1933C65.9833 89.8487 64.9589 88.7603 63.6143 88.7283C54.9389 88.4722 45.9753 90.553 37.7481 94.7467H37.7161C30.4812 98.4281 23.8866 103.71 18.6365 109.985C17.1959 111.681 15.8834 113.506 14.7309 115.363C14.7309 115.363 14.7309 115.363 14.7309 115.395C10.0891 122.854 7.52809 131.689 6.88784 142.382C6.56771 147.664 6.69576 153.49 7.304 160.213C7.40004 161.461 8.45646 162.389 9.70496 162.389C9.76898 162.389 9.83301 162.389 9.92904 162.389C11.2416 162.261 12.234 161.109 12.1059 159.796C11.6257 154.386 11.4657 149.584 11.5937 145.199C20.013 146.159 28.4324 147.119 36.8517 148.08C36.5956 151.409 36.5316 154.77 36.5316 157.78C36.5316 159.092 37.588 160.181 38.9325 160.181C40.2451 160.181 41.3335 159.124 41.3335 157.78C41.3335 154.194 41.4295 150.033 41.8777 146.223C42.4539 141.389 43.5424 137.708 45.271 134.667C45.4311 134.41 45.5912 134.154 45.7512 133.866C47.8961 130.537 50.4891 127.976 53.4343 126.279C56.4115 124.55 59.9009 123.654 63.7744 123.622C65.0869 123.59 66.1753 122.502 66.1433 121.189C66.0153 119.941 64.9268 118.884 63.6143 118.916ZM37.3319 143.342C28.8165 142.382 20.3012 141.389 11.7858 140.429C12.4901 132.554 14.3788 125.831 17.5161 120.069L39.9249 134.378C38.7405 136.971 37.9081 139.917 37.3319 143.342ZM42.3579 130.249L20.0451 116.003C20.7493 115.011 21.4856 114.05 22.2539 113.122C26.5756 107.968 31.8577 103.55 37.684 100.221C40.6932 106.367 43.7024 112.546 46.7116 118.692L49.0165 123.43C46.5516 125.191 44.3107 127.464 42.3579 130.249Z"
        fill="#222222" />
    <path
        d="M262.573 51.7216C262.477 50.4091 261.293 49.4167 259.98 49.5448C258.668 49.6408 257.675 50.8253 257.803 52.1378C258.252 57.5479 258.412 62.3498 258.252 66.7356C249.832 65.7432 241.413 64.7508 232.994 63.7584C233.282 60.4291 233.346 57.0677 233.378 54.0585C233.378 52.746 232.321 51.6576 231.009 51.6256C231.009 51.6256 231.009 51.6256 230.977 51.6256C229.664 51.6256 228.576 52.682 228.576 53.9945C228.544 57.5799 228.448 61.7416 228 65.5191C227.423 70.353 226.303 74.0345 224.542 77.0437C224.382 77.2998 220.637 83.03 216.347 85.367C213.338 87.0316 209.88 87.96 206.007 87.992C204.694 87.992 203.606 89.0804 203.638 90.425C203.638 91.7375 204.726 92.7939 206.039 92.7939H206.071C209.848 92.7619 213.306 92.0576 216.443 90.6811L218.812 95.579C221.725 101.629 224.67 107.712 227.615 113.762C220.669 116.899 213.306 118.404 206.135 118.18C204.822 118.148 203.702 119.172 203.67 120.517C203.638 121.829 204.662 122.95 206.007 122.982C206.519 123.014 207.063 123.014 207.607 123.014C215.803 123.014 224.158 120.965 231.905 117.06C231.905 117.06 231.937 117.06 231.937 117.028C239.172 113.378 245.799 108.128 251.081 101.853C252.521 100.157 253.834 98.3321 254.986 96.4754C254.986 96.4754 254.986 96.4753 254.986 96.4433C259.66 88.9844 262.253 80.1809 262.957 69.4887C263.278 64.3026 263.149 58.4763 262.573 51.7216ZM252.137 91.8655L229.76 77.4598C230.977 74.8668 231.841 71.9536 232.417 68.4963C240.933 69.4887 249.448 70.5131 257.963 71.5055C257.227 79.4126 255.306 86.1032 252.137 91.8655ZM247.367 98.8123C243.014 103.966 237.699 108.352 231.873 111.649C228.96 105.631 226.047 99.5806 223.134 93.5302L220.637 88.3761C223.134 86.6155 225.375 84.3425 227.327 81.5895L249.576 95.9311C248.872 96.9235 248.136 97.8839 247.367 98.8123Z"
        fill="#222222" />
    <path
        d="M118.74 167.608C117.524 167.127 116.115 167.736 115.635 168.952C113.778 173.658 112.274 177.948 111.089 182.045C100.493 180.253 89.6727 179.132 78.9164 178.684C79.8448 176.091 80.8692 173.562 82.0217 171.129C82.5979 169.944 82.0857 168.504 80.8692 167.928C79.6847 167.351 78.2442 167.864 77.6679 169.08C69.9849 185.343 67.2958 204.678 69.1526 229.936C69.2486 231.185 70.305 232.177 71.5535 232.177C71.6175 232.177 71.6816 232.177 71.7456 232.177C73.0581 232.081 74.0505 230.929 73.9545 229.616C73.4743 223.118 73.3142 217.035 73.4743 211.305C84.4866 210.216 95.6911 209.832 106.767 210.216C106.543 216.267 106.607 222.797 106.703 230.448C106.735 231.761 107.792 232.817 109.104 232.817H109.136C110.449 232.785 111.505 231.697 111.505 230.384C111.121 205.767 111.345 192.93 120.117 170.777C120.565 169.496 119.989 168.088 118.74 167.608ZM73.6343 206.407C74.1465 198.02 75.395 190.401 77.3798 183.422C88.2321 183.806 99.1164 184.894 109.809 186.687C108.24 193.026 107.408 199.012 106.96 205.35C95.8832 204.966 84.6787 205.318 73.6343 206.407Z"
        fill="#222222" />
    <path
        d="M198.708 180.861C198.676 180.669 194.93 171.161 192.401 166.135C191.825 164.95 190.385 164.47 189.168 165.047C187.984 165.623 187.503 167.063 188.08 168.28C190 172.153 191.633 175.803 192.978 179.292L159.684 182.653C157.828 177.788 155.491 172.922 152.546 167.896C151.873 166.743 150.401 166.359 149.248 167.031C148.096 167.704 147.712 169.176 148.384 170.329C151.489 175.611 155.779 186.079 155.811 186.175C160.677 199.972 161.445 213.866 160.837 230.929C160.805 232.241 161.829 233.362 163.142 233.426C163.174 233.426 163.206 233.426 163.238 233.426C164.518 233.426 165.575 232.401 165.639 231.121C165.895 223.918 165.895 217.259 165.479 210.953C176.683 210.441 187.984 210.729 199.156 211.753C199.316 217.611 199.188 223.95 198.9 231.281C198.836 232.593 199.892 233.714 201.205 233.778C201.237 233.778 201.269 233.778 201.301 233.778C202.581 233.778 203.638 232.753 203.702 231.473C204.598 210.633 204.31 196.867 198.708 180.861ZM165.191 206.087C164.518 199.62 163.302 193.41 161.381 187.263L194.738 183.902C197.299 191.617 198.548 198.82 199.06 206.823C187.792 205.831 176.427 205.575 165.191 206.087Z"
        fill="#222222" />
    <path
        d="M187.023 89.0164C190.161 85.591 190.353 79.5406 190.513 74.6747C190.545 73.6823 190.577 72.754 190.609 71.9536C190.897 67.6639 190.897 63.3102 190.897 59.1166C190.897 54.9869 190.929 50.7292 191.185 46.5676C191.409 42.9822 191.729 38.0842 189.04 34.2107C185.231 28.6725 179.852 28.1923 174.186 28.1923L99.3085 28.1603C99.0204 28.1603 98.7002 28.1603 98.4121 28.1603C94.7947 28.1283 90.6971 28.1283 87.4318 30.6253C83.2381 33.8585 81.5735 45.223 81.7335 69.9048C81.7335 70.8652 81.7335 71.6975 81.7335 72.3378C81.7335 72.786 81.7335 73.3302 81.7015 73.8744C81.6055 78.5803 81.4774 85.6871 85.351 89.7207C88.6163 93.146 98.5402 93.5302 102.862 93.5302C103.278 93.5302 103.63 93.5302 103.918 93.5302C114.098 93.3701 123.702 93.3701 132.954 93.3701C146.143 93.3701 158.596 93.3701 170.729 92.8899C172.009 92.8259 173.194 92.8259 174.314 92.7939C179.756 92.6979 183.726 92.6018 187.023 89.0164ZM170.537 88.088C158.5 88.5362 146.079 88.5362 132.922 88.5682C123.638 88.5682 114.002 88.5682 103.79 88.7283C96.8435 88.8243 90.0888 87.7999 88.7763 86.3913C86.2793 83.7663 86.4074 77.6199 86.4714 73.9384C86.4714 73.3302 86.5034 72.786 86.5034 72.3058C86.5034 71.6655 86.5034 70.8332 86.5034 69.8408C86.4714 64.9429 86.4394 56.7476 87.0156 49.1926C87.944 36.8357 89.9608 34.6909 90.3449 34.4028C92.0736 33.0582 94.7307 32.9302 97.3877 32.9302C97.7079 32.9302 98.028 32.9302 98.3481 32.9302C98.6682 32.9302 98.9884 32.9302 99.2765 32.9302L174.154 32.9622C179.724 32.9622 182.766 33.5384 185.038 36.8997C186.639 39.2367 186.575 42.534 186.351 46.2474C186.063 50.5371 186.063 54.8909 186.063 59.0845C186.063 63.2142 186.031 67.4719 185.775 71.6335C185.711 72.5299 185.679 73.4902 185.647 74.5146C185.519 78.3882 185.359 83.6703 183.438 85.7511C181.613 87.7359 179.404 87.8639 174.154 87.96C173.098 87.992 171.881 88.024 170.537 88.088ZM148.288 71.3774C147.167 74.9628 144.767 78.036 141.725 79.7967C139.773 80.9172 137.564 81.4934 135.387 81.4934C133.786 81.4934 132.218 81.1733 130.777 80.5651C127.063 78.9324 124.502 75.2189 124.374 71.3454C124.342 70.0329 125.399 68.9124 126.711 68.8804C128.024 68.8484 129.144 69.9048 129.176 71.2173C129.24 73.2662 130.681 75.283 132.698 76.1793C134.715 77.0437 137.244 76.8516 139.292 75.6671C141.309 74.5146 142.878 72.4338 143.678 69.9688C144.062 68.6883 145.439 68.0161 146.687 68.4002C148 68.7844 148.704 70.1289 148.288 71.3774ZM119.476 51.4975C119.669 52.3619 119.348 53.2582 118.644 53.8345L108.368 62.3178C107.92 62.702 107.376 62.862 106.831 62.862C106.127 62.862 105.455 62.5739 104.975 61.9977C104.142 60.9733 104.27 59.4687 105.295 58.6043L112.082 53.0021L104.206 50.7292C102.926 50.3451 102.19 49.0326 102.574 47.752C102.958 46.4715 104.27 45.7352 105.551 46.1194L117.812 49.6728C118.644 49.9289 119.316 50.6332 119.476 51.4975ZM169.416 46.9517C169.832 48.2002 169.128 49.5768 167.88 49.9929L159.044 52.8741L165.511 57.9961C166.567 58.8284 166.727 60.333 165.895 61.3574C165.415 61.9657 164.71 62.2858 164.006 62.2858C163.494 62.2858 162.95 62.1257 162.534 61.7736L152.514 53.8665C151.809 53.3222 151.489 52.4259 151.649 51.5616C151.809 50.6972 152.418 49.9609 153.282 49.7048L166.407 45.4471C167.656 44.999 169 45.7032 169.416 46.9517ZM95.467 125.607C95.3389 123.462 95.1788 121.029 94.0904 118.756C92.7139 115.811 90.0248 113.954 87.2397 114.082C84.6787 114.178 81.5094 116.227 80.5491 120.421C79.9088 123.27 80.5491 142.958 81.1893 149.264C81.4134 151.345 81.7335 153.522 82.7899 155.507C84.1665 158.068 86.5674 159.7 89.0324 159.764C89.0964 159.764 89.1605 159.764 89.1925 159.764C92.1697 159.764 95.0508 157.492 96.2033 154.162C97.1316 151.505 96.9395 148.688 96.7795 146.415L95.467 125.607ZM91.7215 152.594C91.2413 153.97 90.1529 155.027 89.2245 154.963C88.4882 154.931 87.5918 154.226 87.0476 153.234C86.4074 152.081 86.1513 150.609 85.9912 148.784C85.2549 141.581 84.8708 123.59 85.2549 121.477C85.575 120.101 86.5674 118.916 87.4638 118.884C88.2321 118.852 89.2245 119.685 89.7687 120.805C90.441 122.246 90.569 124.134 90.6971 125.927L92.0736 146.703C92.1697 148.752 92.3297 150.865 91.7215 152.594ZM113.746 118.116C112.594 116.163 110.737 114.755 108.784 114.306C107.248 113.954 105.679 114.21 104.399 115.075C102.83 116.099 101.709 117.988 101.261 120.293C100.909 122.086 100.941 123.878 101.005 125.479C101.069 127.176 101.037 128.712 101.037 130.185C101.037 132.842 101.005 135.339 101.293 138.38C101.389 139.436 101.453 140.717 101.485 142.029C101.645 145.999 101.837 150.513 103.278 153.714C104.527 156.435 106.863 158.132 109.264 158.132C109.617 158.132 109.937 158.1 110.289 158.036C112.306 157.62 114.066 155.891 114.995 153.458C115.667 151.665 115.859 149.776 115.955 147.984C116.435 141.005 116.403 133.898 115.891 126.919C115.699 124.102 115.347 120.837 113.746 118.116ZM111.217 147.728C111.121 149.232 110.993 150.673 110.545 151.825C110.161 152.818 109.617 153.33 109.328 153.394C109.04 153.458 108.208 152.946 107.696 151.793C106.639 149.424 106.479 145.423 106.319 141.901C106.255 140.493 106.223 139.18 106.095 137.996C105.839 135.179 105.839 132.778 105.871 130.249C105.871 128.712 105.871 127.144 105.839 125.383C105.807 123.974 105.743 122.534 105.999 121.285C106.191 120.261 106.639 119.396 107.12 119.108C107.216 119.044 107.312 118.98 107.504 118.98C107.568 118.98 107.664 118.98 107.76 119.012C108.432 119.172 109.168 119.781 109.649 120.581C110.705 122.406 110.993 124.903 111.153 127.336C111.633 134.09 111.665 140.941 111.217 147.728ZM134.042 117.252C132.826 114.883 130.649 113.346 128.376 113.25C125.559 113.122 122.838 115.203 121.717 118.308C120.885 120.677 121.045 123.206 121.173 125.223C121.397 128.584 121.525 131.657 121.653 134.602C121.877 139.436 122.07 144.014 122.614 149.52C122.742 150.737 123.286 154.834 125.591 156.627C126.839 157.588 128.344 158.1 129.849 158.1C130.169 158.1 130.489 158.068 130.809 158.036C132.41 157.812 133.754 156.979 134.618 155.731C136.091 153.618 136.411 151.377 136.571 149.264C137.308 140.301 136.507 131.241 135.515 122.822C135.227 120.965 134.939 119.044 134.042 117.252ZM131.737 148.848C131.577 150.769 131.353 151.921 130.649 152.978C130.489 153.202 130.201 153.266 130.041 153.298C129.528 153.362 128.984 153.202 128.504 152.85C128.152 152.53 127.544 150.961 127.352 149.072C126.839 143.694 126.647 139.212 126.423 134.41C126.295 131.433 126.167 128.36 125.943 124.935C125.815 123.174 125.719 121.381 126.231 119.909C126.583 118.884 127.48 118.02 128.12 118.052C128.664 118.084 129.336 118.66 129.753 119.46C130.297 120.517 130.489 121.893 130.681 123.366C131.641 131.529 132.442 140.301 131.737 148.848ZM156.195 129.448C156.739 129.544 157.283 129.576 157.828 129.576C160.357 129.576 162.822 128.616 164.518 126.855C166.823 124.486 167.56 120.933 166.311 117.988C165.159 115.299 162.886 113.346 160.069 112.706C157.155 112.034 154.018 112.802 151.713 114.787C149.632 116.579 148.48 119.3 148.736 121.893C149.088 125.607 152.225 128.776 156.195 129.448ZM154.851 118.468C155.747 117.7 156.835 117.284 157.956 117.284C158.308 117.284 158.628 117.316 158.98 117.412C160.325 117.732 161.349 118.596 161.893 119.909C162.373 121.029 162.021 122.566 161.093 123.526C160.133 124.518 158.5 124.999 156.995 124.711C155.203 124.39 153.666 122.982 153.506 121.445C153.41 120.421 153.954 119.268 154.851 118.468ZM182.061 128.936C182.381 128.936 182.702 128.904 183.054 128.872C185.615 128.616 187.888 127.368 189.264 125.479C191.377 122.598 191.153 118.308 188.784 115.491C186.511 112.802 182.509 111.393 179.02 112.002C176.203 112.514 174.026 114.338 173.066 116.963C172.009 119.909 172.714 123.366 174.858 125.767C176.587 127.784 179.308 128.936 182.061 128.936ZM177.516 118.628C177.9 117.572 178.636 116.963 179.82 116.739C181.645 116.419 183.886 117.22 185.07 118.596C186.031 119.717 186.159 121.541 185.359 122.63C184.782 123.398 183.726 123.942 182.541 124.07C180.973 124.23 179.34 123.622 178.38 122.566C177.419 121.541 177.067 119.909 177.516 118.628ZM160.389 138.38C156.515 137.772 154.37 139.148 152.802 140.589C151.041 142.189 149.921 144.783 150.017 146.991C150.113 149.264 151.105 151.345 152.898 153.01C154.21 154.226 156.067 155.219 157.764 155.635C158.308 155.763 158.884 155.827 159.46 155.827C162.181 155.827 164.935 154.354 166.439 151.985C168.136 149.296 168.168 145.679 166.535 142.83C165.095 140.301 162.982 138.764 160.389 138.38ZM162.341 149.456C161.637 150.609 160.101 151.281 158.884 150.993C157.988 150.769 156.899 150.161 156.163 149.52C155.299 148.72 154.85 147.824 154.818 146.799C154.786 145.967 155.331 144.783 156.035 144.142C156.803 143.438 157.476 143.054 158.596 143.054C158.916 143.054 159.236 143.086 159.652 143.15C160.773 143.31 161.637 144.014 162.341 145.231C163.078 146.511 163.078 148.272 162.341 149.456ZM184.046 136.875C180.557 136.299 177.163 137.516 175.243 140.045C173.29 142.574 172.938 146.159 174.346 149.136C175.435 151.473 177.58 153.33 180.045 154.098C180.909 154.354 181.805 154.482 182.734 154.482C185.135 154.482 187.471 153.554 189.2 151.889C191.601 149.52 192.465 145.839 191.409 142.702C190.321 139.66 187.535 137.452 184.046 136.875ZM185.775 148.464C184.686 149.52 182.894 149.969 181.421 149.488C180.237 149.136 179.18 148.208 178.668 147.087C178.028 145.743 178.188 144.046 179.02 142.958C179.82 141.901 181.133 141.517 182.317 141.517C182.638 141.517 182.958 141.549 183.246 141.581C184.622 141.805 186.255 142.606 186.799 144.206C187.279 145.647 186.863 147.376 185.775 148.464ZM259.148 17.5321C256.523 17.436 254.122 18.3644 252.585 20.1251C249.8 23.2943 250.344 27.584 250.793 31.0094L250.825 31.1375C250.889 31.5216 250.921 31.9058 250.985 32.2899C251.337 34.8189 251.689 37.2199 250.632 38.8205C249.48 40.5812 245.959 42.3419 240.933 41.9898C238.468 41.8297 235.266 40.7733 234.306 38.3403C233.698 36.7717 234.402 34.8189 235.234 32.546C236.227 29.857 237.347 26.7837 236.259 23.5825C235.298 20.7013 232.481 18.5885 229.472 18.4284C226.271 18.2363 223.742 20.8934 222.429 23.4224C219.548 29.1207 218.3 34.8829 218.844 40.165C219.516 46.5996 222.941 52.2338 227.967 55.179C228.16 55.307 228.352 55.4031 228.544 55.4991C228.512 58.7004 228.384 62.2538 227.967 65.5511C227.391 70.385 226.271 74.0665 224.51 77.0757C224.35 77.3318 224.19 77.5879 224.03 77.876C221.885 81.2053 219.292 83.7343 216.315 85.431C213.946 86.7755 211.257 87.6078 208.312 87.928C208.28 75.411 208.28 62.798 208.376 50.5051C208.536 33.2503 205.431 21.0535 199.156 14.2348C191.569 5.97548 179.788 3.03032 171.209 2.00591C153.826 -0.0749134 138.46 -0.523091 121.365 0.597353C112.786 1.14157 102.734 2.16597 93.3221 5.55932C86.2153 8.12033 76.4194 13.2104 70.1449 22.8782C63.7104 32.8021 62.622 44.6788 62.0457 57.0037C61.5655 67.1517 61.2454 77.844 61.1174 88.7603C53.2102 88.9204 45.143 91.0012 37.6841 94.7787H37.6521C30.4172 98.4601 23.8226 103.742 18.5725 110.017C17.1319 111.713 15.8194 113.538 14.6669 115.395C14.6669 115.395 14.6669 115.395 14.6669 115.427C10.0251 122.886 7.46409 131.721 6.82384 142.414C6.53572 147.312 6.63176 152.722 7.11195 158.868C6.82384 159.092 6.50371 159.348 6.2156 159.572C2.14998 163.062 -0.122917 168.728 0.00513362 175.067C0.101172 180.413 1.22162 187.423 4.00672 191.137C5.4793 193.09 8.04032 194.338 10.7934 194.402C10.9215 194.402 11.0175 194.402 11.1456 194.402C13.6425 194.402 15.9154 193.442 17.356 191.777C20.1411 188.576 19.5649 184.318 19.0847 180.861L19.0527 180.733C18.9887 180.349 18.9566 179.964 18.8926 179.58C18.5085 177.051 18.1883 174.65 19.2127 173.05C20.3652 171.289 23.8866 169.528 28.8806 169.816C31.3456 169.977 34.5468 171.001 35.5392 173.434C36.1795 175.002 35.4432 176.955 34.6429 179.228C33.6505 181.949 32.562 184.99 33.6505 188.192C34.6429 191.041 37.428 193.154 40.4692 193.314C43.7025 193.474 46.1994 190.817 47.48 188.288C50.3611 182.589 51.5776 176.795 51.0014 171.545C50.2971 165.111 46.8717 159.508 41.8457 156.563C41.6536 156.435 41.4616 156.339 41.2695 156.243C41.3015 153.042 41.3975 149.488 41.7817 146.191C42.3579 141.357 43.4464 137.676 45.175 134.634C45.3351 134.378 45.4952 134.122 45.6552 133.834C47.8001 130.505 50.3931 127.944 53.3383 126.247C55.7072 124.903 58.3643 124.038 61.3094 123.718C61.5975 137.003 62.1097 150.001 62.8781 162.133C63.2302 167.864 68.0321 172.377 73.8264 172.377C74.5947 172.377 75.395 172.377 76.1633 172.377C69.7928 187.648 67.5199 205.639 69.0565 228.496C63.8384 232.817 61.0853 238.804 61.9817 244.694C62.1418 245.847 63.1342 246.711 64.3186 246.743C72.834 246.903 81.7335 246.903 90.3769 246.903C98.9884 246.903 107.888 246.903 116.339 247.063H116.371C117.588 247.063 118.612 246.135 118.772 244.918C119.38 239.188 116.595 233.394 111.505 229.072C111.153 205.735 111.473 192.994 119.541 172.057C129.4 171.897 139.324 171.705 149.184 171.385C151.969 176.251 154.114 180.989 155.811 185.727C155.843 185.823 155.875 185.919 155.907 186.015C160.677 199.524 161.509 213.098 160.965 229.68C155.971 233.97 153.346 239.828 154.242 245.59C154.402 246.743 155.395 247.607 156.579 247.639C165.095 247.799 173.994 247.799 182.638 247.799C191.249 247.799 200.148 247.799 208.6 247.959H208.632C209.848 247.959 210.873 247.031 211.033 245.815C211.641 240.148 208.888 234.386 203.862 230.064C204.598 209.992 204.214 196.419 198.74 180.733C198.708 180.541 198.644 180.349 198.548 180.157C197.299 176.667 195.795 173.05 194.002 169.208C195.443 169.112 196.851 169.016 198.292 168.92C203.926 168.504 208.376 163.734 208.44 158.1C208.536 146.543 208.536 134.699 208.536 122.95C216.411 122.79 224.446 120.773 231.905 116.995C231.905 116.995 231.937 116.995 231.937 116.963C239.172 113.314 245.799 108.064 251.081 101.789C252.521 100.093 253.834 98.2681 254.986 96.4113C254.986 96.4113 254.986 96.4113 254.986 96.3793C259.66 88.9204 262.253 80.1169 262.957 69.4246C263.277 64.5267 263.181 59.1166 262.733 52.9701C263.021 52.746 263.342 52.5219 263.63 52.2658C267.695 48.7765 270 43.1422 269.904 36.8037C269.84 31.4576 268.752 24.4468 265.967 20.7333C264.43 18.8766 261.901 17.6281 259.148 17.5321ZM17.5161 120.069L39.925 134.378C38.7085 136.971 37.8761 139.885 37.2999 143.342C28.7845 142.382 20.2692 141.389 11.7538 140.429C12.4901 132.554 14.3788 125.863 17.5161 120.069ZM11.4977 145.263C19.917 146.223 28.3364 147.183 36.7557 148.144C36.5956 150.257 36.4996 152.37 36.4676 154.418C32.594 153.298 28.1123 152.946 23.0863 153.394C19.821 153.682 15.6593 154.418 11.7218 156.211C11.4657 152.209 11.4017 148.592 11.4977 145.263ZM46.2315 172.185C46.7116 176.539 45.6552 181.405 43.2223 186.271C42.518 187.648 41.4616 188.704 40.7573 188.672C39.6689 188.608 38.5804 187.808 38.2283 186.783C37.6841 185.183 38.4204 183.166 39.1887 181.021C40.2131 178.236 41.3655 175.067 40.053 171.801C38.2603 167.287 33.2983 165.431 29.2327 165.175C24.5909 164.886 18.1243 166.135 15.2432 170.553C13.1944 173.658 13.7386 177.243 14.1868 180.413C14.2508 180.765 14.2828 181.149 14.3468 181.501L14.3788 181.629C14.731 184.35 15.1151 187.199 13.7706 188.736C13.1944 189.376 12.17 189.76 10.9855 189.696C9.67297 189.664 8.4885 189.12 7.88025 188.32C6.18358 186.079 4.9671 180.733 4.83905 175.067C4.74301 170.233 6.43969 165.815 9.38485 163.286C9.89706 162.838 10.4093 162.454 10.9535 162.101C14.891 159.476 19.853 158.516 23.5024 158.196C24.783 158.068 26.0315 158.036 27.2159 158.036C31.3456 158.036 34.899 158.708 37.8761 160.085C37.8761 160.085 37.9082 160.085 37.9082 160.117C38.4204 160.373 38.9326 160.629 39.4128 160.885C43.0942 162.966 45.6872 167.319 46.2315 172.185ZM42.3579 130.249L20.0451 116.003C20.7494 115.011 21.4856 114.05 22.254 113.122C26.5757 107.968 31.8578 103.55 37.6841 100.221C40.6933 106.367 43.7025 112.546 46.7116 118.692L49.0166 123.43C46.5516 125.191 44.3107 127.464 42.3579 130.249ZM53.2102 121.061L51.0334 116.579C48.0242 110.401 44.983 104.222 41.9738 98.044C48.1522 95.2269 54.6828 93.6903 61.0853 93.5302C61.0213 102.014 61.0533 110.561 61.1814 119.044C58.3643 119.3 55.6752 119.973 53.2102 121.061ZM77.3798 183.422C88.2321 183.806 99.1164 184.894 109.809 186.687C108.24 193.026 107.408 199.012 106.96 205.351C95.8511 204.966 84.6787 205.318 73.6343 206.407C74.1465 197.988 75.395 190.401 77.3798 183.422ZM73.4422 211.241C84.4546 210.152 95.659 209.768 106.735 210.152C106.543 214.986 106.543 220.14 106.639 225.935C105.999 225.615 105.359 225.294 104.719 225.006C95.8511 221.069 84.0064 221.005 75.299 224.846C74.7548 225.07 74.2105 225.326 73.6983 225.615C73.4102 220.557 73.3142 215.787 73.4422 211.241ZM113.97 242.357C107.664 242.261 101.165 242.261 94.7627 242.261C93.2901 242.261 91.8175 242.261 90.3449 242.261C82.5018 242.261 74.4026 242.261 66.6235 242.165C66.8156 238.356 69.0885 234.61 72.834 231.793C72.898 231.729 72.9941 231.697 73.0581 231.633C74.3066 230.737 75.6831 229.936 77.2197 229.264C84.7747 225.935 95.0508 225.999 102.766 229.424C104.527 230.192 106.127 231.153 107.536 232.209C107.632 232.273 107.696 232.337 107.792 232.401C111.313 235.154 113.586 238.74 113.97 242.357ZM111.089 182.013C100.493 180.221 89.6727 179.1 78.9164 178.652C79.6527 176.539 80.485 174.49 81.3814 172.473C92.2337 172.441 103.278 172.377 114.354 172.249C113.074 175.707 111.986 178.94 111.089 182.013ZM159.748 182.622C158.34 178.908 156.611 175.163 154.562 171.353C166.087 170.937 177.548 170.425 188.816 169.688C190.449 173.05 191.825 176.219 193.01 179.26L159.748 182.622ZM200.052 233.266C203.606 236.051 205.847 239.604 206.231 243.222C199.924 243.125 193.426 243.125 187.023 243.125C185.551 243.125 184.078 243.125 182.606 243.125C174.762 243.125 166.663 243.125 158.884 243.029C159.076 239.348 161.189 235.731 164.71 232.977C164.774 232.945 164.838 232.881 164.902 232.817C166.247 231.793 167.784 230.865 169.48 230.128C177.035 226.799 187.311 226.863 195.026 230.288C196.787 231.057 198.388 232.017 199.828 233.106C199.86 233.138 199.956 233.202 200.052 233.266ZM199.156 226.959C198.452 226.575 197.716 226.223 196.947 225.871C188.08 221.933 176.235 221.869 167.528 225.711C166.951 225.967 166.407 226.223 165.863 226.511C165.991 221.037 165.927 215.851 165.575 210.889C176.779 210.377 188.08 210.665 199.252 211.689C199.38 216.363 199.316 221.389 199.156 226.959ZM194.706 183.934C197.267 191.649 198.516 198.852 199.028 206.855C187.792 205.863 176.427 205.607 165.191 206.119C164.518 199.652 163.302 193.442 161.381 187.295L194.706 183.934ZM203.574 158.164C203.542 161.333 201.045 164.022 197.876 164.246C182.381 165.399 166.471 166.167 150.465 166.679C150.433 166.679 150.433 166.679 150.401 166.679C124.727 167.512 98.7643 167.672 73.7944 167.704C70.5611 167.704 67.872 165.175 67.6479 161.941C65.5671 129.416 65.279 90.2649 66.8796 57.1958C67.4559 45.5432 68.4162 34.3707 74.2105 25.4712C79.7487 16.9238 88.5842 12.378 95.0188 10.0731C103.886 6.87184 113.49 5.91146 121.717 5.36724C127.64 4.98309 133.37 4.79101 139.036 4.79101C149.44 4.79101 159.652 5.43127 170.697 6.7758C178.476 7.70417 189.104 10.3292 195.699 17.5001C201.109 23.3904 203.798 34.4988 203.638 50.4731C203.478 68.2082 203.542 86.5834 203.606 104.382C203.638 109.633 203.638 114.947 203.67 120.293C203.638 120.389 203.638 120.517 203.638 120.613C203.638 120.773 203.638 120.965 203.67 121.125C203.702 133.482 203.702 145.999 203.574 158.164ZM208.472 118.244C208.472 113.57 208.44 108.928 208.44 104.318C208.44 100.477 208.408 96.6034 208.408 92.7299C211.289 92.4738 213.978 91.8015 216.475 90.7451L218.844 95.643C221.757 101.693 224.702 107.776 227.647 113.826C221.405 116.611 214.874 118.116 208.472 118.244ZM247.367 98.8123C243.013 103.966 237.699 108.352 231.873 111.649C228.96 105.631 226.047 99.5806 223.134 93.5302L220.637 88.3761C223.134 86.6154 225.374 84.3425 227.327 81.5895L249.576 95.9311C248.872 96.9235 248.135 97.8839 247.367 98.8123ZM252.137 91.8655L229.76 77.4598C230.977 74.8668 231.841 71.9536 232.417 68.4963C240.933 69.4887 249.448 70.5131 257.963 71.5055C257.227 79.4126 255.306 86.1032 252.137 91.8655ZM258.251 66.7356C249.832 65.7432 241.413 64.7508 232.993 63.7584C233.186 61.6456 233.25 59.5327 233.314 57.4839C236.131 58.3162 239.3 58.7324 242.757 58.7324C244.038 58.7324 245.35 58.6684 246.695 58.5723C249.96 58.2842 254.122 57.5799 258.059 55.8192C258.316 59.7568 258.38 63.3742 258.251 66.7356ZM260.46 48.7444C259.948 49.1606 259.436 49.5768 258.86 49.9289C254.922 52.5219 249.96 53.4823 246.279 53.7704C240.58 54.2506 235.811 53.6104 232.001 51.8817C231.969 51.8497 231.905 51.8497 231.873 51.8177C231.361 51.5616 230.849 51.3055 230.4 51.0494C226.751 48.9045 224.158 44.5188 223.614 39.6528C223.166 35.2991 224.222 30.4652 226.687 25.5993C227.391 24.2227 228.48 23.1663 229.184 23.2303C230.272 23.2944 231.361 24.1267 231.713 25.1511C232.257 26.7517 231.521 28.7685 230.721 30.9134C229.696 33.6985 228.544 36.8677 229.824 40.133C231.617 44.6468 236.547 46.5356 240.613 46.7917C245.254 47.1118 251.721 45.8953 254.634 41.4776C256.683 38.3723 256.171 34.7869 255.722 31.6176C255.658 31.2655 255.626 30.8814 255.562 30.5292L255.53 30.4012C255.178 27.6801 254.794 24.831 256.171 23.2943C256.747 22.6541 257.771 22.2699 258.956 22.334C260.268 22.398 261.453 22.9102 262.061 23.7425C263.758 26.0154 264.974 31.3295 265.038 36.9958C265.134 41.8297 263.406 46.2154 260.46 48.7444Z"
        fill="#C1121F" />
</svg>
    