<svg width="247" height="247" viewBox="0 0 247 247" fill="none" xmlns="http://www.w3.org/2000/svg">
<rect x="5.23206" y="57.3089" width="237.023" height="113.888" fill="#669BBC"/>
<circle cx="123.5" cy="93.8113" r="24.8217" fill="#FDF0D5"/>
<circle cx="123.5" cy="123.5" r="14.601" fill="#FDF0D5"/>
<circle cx="123.5" cy="166.816" r="47.2099" fill="#FDF0D5"/>
<path fill-rule="evenodd" clip-rule="evenodd" d="M110.724 38.3276V51.1035H12.7759C9.386 51.1035 6.13667 52.4492 3.74333 54.8468C1.34572 57.2401 0 60.4894 0 63.8793C0 74.5642 0 100.423 0 121.371C0 123.721 1.90786 125.629 4.25862 125.629C6.60938 125.629 8.51724 123.721 8.51724 121.371V63.8793C8.51724 62.7508 8.9644 61.6648 9.76502 60.8685C10.5614 60.0678 11.6473 59.6207 12.7759 59.6207H234.224C235.353 59.6207 236.439 60.0678 237.235 60.8685C238.036 61.6648 238.483 62.7508 238.483 63.8793V170.345H176.682C177.248 156.015 172.07 141.501 161.142 130.574C155.24 124.671 148.289 120.447 140.892 117.9C148.409 112.483 153.31 103.655 153.31 93.6897C153.31 77.2386 139.951 63.8793 123.5 63.8793C107.049 63.8793 93.6897 77.2386 93.6897 93.6897C93.6897 103.655 98.5913 112.483 106.108 117.9C98.7106 120.447 91.7605 124.671 85.858 130.574C74.9304 141.501 69.7519 156.015 70.3183 170.345H8.51724V136.276C8.51724 133.925 6.60938 132.017 4.25862 132.017C1.90786 132.017 0 133.925 0 136.276V191.638C0 195.028 1.34572 198.277 3.74333 200.67C6.13667 203.068 9.386 204.414 12.7759 204.414H29.8103C32.1611 204.414 34.069 202.506 34.069 200.155C34.069 197.804 32.1611 195.897 29.8103 195.897H12.7759C11.6473 195.897 10.5614 195.449 9.76502 194.649C8.9644 193.852 8.51724 192.766 8.51724 191.638V178.862H238.483V191.638C238.483 192.766 238.036 193.852 237.235 194.649C236.439 195.449 235.353 195.897 234.224 195.897H46.8448C44.4941 195.897 42.5862 197.804 42.5862 200.155C42.5862 202.506 44.4941 204.414 46.8448 204.414H100.529C99.8476 215.835 96.8879 230.592 85.9773 238.483H78.7845C76.4337 238.483 74.5259 240.391 74.5259 242.741C74.5259 245.092 76.4337 247 78.7845 247H168.216C170.566 247 172.474 245.092 172.474 242.741C172.474 240.391 170.566 238.483 168.216 238.483H161.023C150.112 230.587 147.152 215.835 146.471 204.414H234.224C237.614 204.414 240.863 203.068 243.257 200.67C245.654 198.277 247 195.028 247 191.638C247 165.967 247 89.5503 247 63.8793C247 60.4894 245.654 57.2401 243.257 54.8468C240.863 52.4492 237.614 51.1035 234.224 51.1035H136.276V38.3276H149.052C156.108 38.3276 161.828 32.6083 161.828 25.5517V12.7759C161.828 5.71933 156.108 0 149.052 0H97.9483C90.8917 0 85.1724 5.71933 85.1724 12.7759C85.1724 16.7832 85.1724 21.5444 85.1724 25.5517C85.1724 32.6083 90.8917 38.3276 97.9483 38.3276H110.724ZM137.954 204.414H109.046C108.386 215.192 105.703 228.603 98.0377 238.483H148.962C141.297 228.603 138.614 215.188 137.954 204.414ZM103.996 127.967C99.6177 130.088 95.5123 132.967 91.8797 136.595C82.6598 145.815 78.316 158.076 78.8356 170.162C78.8398 170.221 78.8399 170.285 78.8399 170.345H168.16C168.16 170.285 168.16 170.221 168.164 170.162C168.684 158.076 164.34 145.815 155.12 136.595C151.488 132.967 147.382 130.088 143.004 127.967C142.195 131.519 140.411 134.888 137.647 137.647C129.841 145.457 117.159 145.457 109.353 137.647C106.589 134.888 104.805 131.519 103.996 127.967ZM17.0345 140.534V149.052C17.0345 151.402 18.9423 153.31 21.2931 153.31C23.6439 153.31 25.5517 151.402 25.5517 149.052V140.534C25.5517 138.184 23.6439 136.276 21.2931 136.276C18.9423 136.276 17.0345 138.184 17.0345 140.534ZM134.892 124.973C127.435 123.019 119.565 123.019 112.108 124.973C112.419 127.409 113.509 129.76 115.375 131.625C119.859 136.11 127.141 136.11 131.625 131.625C133.491 129.76 134.581 127.409 134.892 124.973ZM25.5517 127.759V72.3966C25.5517 70.0458 23.6439 68.1379 21.2931 68.1379C18.9423 68.1379 17.0345 70.0458 17.0345 72.3966V127.759C17.0345 130.109 18.9423 132.017 21.2931 132.017C23.6439 132.017 25.5517 130.109 25.5517 127.759ZM123.5 72.3966C135.254 72.3966 144.793 81.9359 144.793 93.6897C144.793 105.443 135.254 114.983 123.5 114.983C111.746 114.983 102.207 105.443 102.207 93.6897C102.207 81.9359 111.746 72.3966 123.5 72.3966ZM119.241 38.3276H125.421H127.759V51.1035H119.241V38.3276ZM153.31 12.7759V25.5517C153.31 27.9025 151.402 29.8103 149.052 29.8103H97.9483C95.5975 29.8103 93.6897 27.9025 93.6897 25.5517V12.7759C93.6897 10.4251 95.5975 8.51724 97.9483 8.51724H149.052C151.402 8.51724 153.31 10.4251 153.31 12.7759ZM140.534 14.9052C142.885 14.9052 144.793 16.813 144.793 19.1638C144.793 21.5146 142.885 23.4224 140.534 23.4224C138.184 23.4224 136.276 21.5146 136.276 19.1638C136.276 16.813 138.184 14.9052 140.534 14.9052ZM106.466 14.9052C108.816 14.9052 110.724 16.813 110.724 19.1638C110.724 21.5146 108.816 23.4224 106.466 23.4224C104.115 23.4224 102.207 21.5146 102.207 19.1638C102.207 16.813 104.115 14.9052 106.466 14.9052Z" fill="#C1121F"/>
</svg>
